<mxfile host="app.diagrams.net" agent="Mozilla/5.0 (Windows NT 10.0; Win64; x64; rv:139.0) Gecko/20100101 Firefox/139.0" version="27.1.4">
  <diagram name="Page-1" id="9zebZsWNhqPq_CBQUX7l">
    <mxGraphModel dx="1087" dy="948" grid="1" gridSize="10" guides="1" tooltips="1" connect="1" arrows="1" fold="1" page="1" pageScale="1" pageWidth="850" pageHeight="1100" math="0" shadow="0">
      <root>
        <mxCell id="0" />
        <mxCell id="1" parent="0" />
        <mxCell id="qHlx8H-2xH8fS5CQUAHE-5" value="«interface»&lt;br&gt;&lt;b&gt;ICryptoWrapper&lt;/b&gt;" style="html=1;whiteSpace=wrap;" parent="1" vertex="1">
          <mxGeometry x="280" y="210" width="110" height="50" as="geometry" />
        </mxCell>
        <mxCell id="qHlx8H-2xH8fS5CQUAHE-6" value="" style="rounded=0;orthogonalLoop=1;jettySize=auto;html=1;endArrow=halfCircle;endFill=0;endSize=6;strokeWidth=1;sketch=0;exitX=0;exitY=0.06;exitDx=0;exitDy=0;exitPerimeter=0;" parent="1" source="qHlx8H-2xH8fS5CQUAHE-21" target="qHlx8H-2xH8fS5CQUAHE-8" edge="1">
          <mxGeometry relative="1" as="geometry">
            <mxPoint x="460" y="235" as="sourcePoint" />
          </mxGeometry>
        </mxCell>
        <mxCell id="qHlx8H-2xH8fS5CQUAHE-7" value="" style="rounded=0;orthogonalLoop=1;jettySize=auto;html=1;endArrow=oval;endFill=0;sketch=0;sourcePerimeterSpacing=0;targetPerimeterSpacing=0;endSize=10;exitX=1;exitY=0.5;exitDx=0;exitDy=0;" parent="1" source="qHlx8H-2xH8fS5CQUAHE-5" edge="1">
          <mxGeometry relative="1" as="geometry">
            <mxPoint x="430" y="445" as="sourcePoint" />
            <mxPoint x="430" y="235" as="targetPoint" />
          </mxGeometry>
        </mxCell>
        <mxCell id="qHlx8H-2xH8fS5CQUAHE-8" value="" style="ellipse;whiteSpace=wrap;html=1;align=center;aspect=fixed;fillColor=none;strokeColor=none;resizable=0;perimeter=centerPerimeter;rotatable=0;allowArrows=0;points=[];outlineConnect=1;" parent="1" vertex="1">
          <mxGeometry x="425" y="230" width="10" height="10" as="geometry" />
        </mxCell>
        <mxCell id="qHlx8H-2xH8fS5CQUAHE-18" value="main" style="swimlane;fontStyle=1;align=center;verticalAlign=top;childLayout=stackLayout;horizontal=1;startSize=26;horizontalStack=0;resizeParent=1;resizeParentMax=0;resizeLast=0;collapsible=1;marginBottom=0;whiteSpace=wrap;html=1;" parent="1" vertex="1">
          <mxGeometry x="570" y="198" width="160" height="74" as="geometry" />
        </mxCell>
        <mxCell id="qHlx8H-2xH8fS5CQUAHE-20" value="" style="line;strokeWidth=1;fillColor=none;align=left;verticalAlign=middle;spacingTop=-1;spacingLeft=3;spacingRight=3;rotatable=0;labelPosition=right;points=[];portConstraint=eastwest;strokeColor=inherit;" parent="qHlx8H-2xH8fS5CQUAHE-18" vertex="1">
          <mxGeometry y="26" width="160" height="8" as="geometry" />
        </mxCell>
        <mxCell id="qHlx8H-2xH8fS5CQUAHE-21" value="&lt;div&gt;+ client(ICryptoWrapper&amp;amp;)&lt;/div&gt;&lt;div&gt;+ server(ICryptoWrapper&amp;amp;)&lt;/div&gt;&lt;div&gt;&lt;br&gt;&lt;/div&gt;" style="text;strokeColor=none;fillColor=none;align=left;verticalAlign=top;spacingLeft=4;spacingRight=4;overflow=hidden;rotatable=0;points=[[0,0.5],[1,0.5]];portConstraint=eastwest;whiteSpace=wrap;html=1;" parent="qHlx8H-2xH8fS5CQUAHE-18" vertex="1">
          <mxGeometry y="34" width="160" height="40" as="geometry" />
        </mxCell>
        <mxCell id="qHlx8H-2xH8fS5CQUAHE-23" value="LibTomWrapper" style="swimlane;fontStyle=1;align=center;verticalAlign=top;childLayout=stackLayout;horizontal=1;startSize=26;horizontalStack=0;resizeParent=1;resizeParentMax=0;resizeLast=0;collapsible=1;marginBottom=0;whiteSpace=wrap;html=1;" parent="1" vertex="1">
          <mxGeometry x="140" y="360" width="190" height="180" as="geometry" />
        </mxCell>
        <mxCell id="qHlx8H-2xH8fS5CQUAHE-24" value="- ..." style="text;strokeColor=none;fillColor=none;align=left;verticalAlign=top;spacingLeft=4;spacingRight=4;overflow=hidden;rotatable=0;points=[[0,0.5],[1,0.5]];portConstraint=eastwest;whiteSpace=wrap;html=1;" parent="qHlx8H-2xH8fS5CQUAHE-23" vertex="1">
          <mxGeometry y="26" width="190" height="26" as="geometry" />
        </mxCell>
        <mxCell id="qHlx8H-2xH8fS5CQUAHE-25" value="" style="line;strokeWidth=1;fillColor=none;align=left;verticalAlign=middle;spacingTop=-1;spacingLeft=3;spacingRight=3;rotatable=0;labelPosition=right;points=[];portConstraint=eastwest;strokeColor=inherit;" parent="qHlx8H-2xH8fS5CQUAHE-23" vertex="1">
          <mxGeometry y="52" width="190" height="8" as="geometry" />
        </mxCell>
        <mxCell id="qHlx8H-2xH8fS5CQUAHE-26" value="&lt;div&gt;+ hash(string&amp;amp;): byte[]&lt;/div&gt;&lt;div&gt;+ secureRnd(size_t): byte[]&lt;/div&gt;&lt;div&gt;+ setupDH(...)&lt;/div&gt;&lt;div&gt;+ updateDH(...)&lt;/div&gt;&lt;div&gt;+ finishDH(...)&lt;/div&gt;&lt;div&gt;+ encrypt(string, byte[]): byte[]&lt;/div&gt;&lt;div&gt;+ decrypt(byte[], byte[]): string&lt;/div&gt;" style="text;strokeColor=none;fillColor=none;align=left;verticalAlign=top;spacingLeft=4;spacingRight=4;overflow=hidden;rotatable=0;points=[[0,0.5],[1,0.5]];portConstraint=eastwest;whiteSpace=wrap;html=1;" parent="qHlx8H-2xH8fS5CQUAHE-23" vertex="1">
          <mxGeometry y="60" width="190" height="120" as="geometry" />
        </mxCell>
        <mxCell id="qHlx8H-2xH8fS5CQUAHE-33" value="LibHydrogenWrapper" style="swimlane;fontStyle=1;align=center;verticalAlign=top;childLayout=stackLayout;horizontal=1;startSize=26;horizontalStack=0;resizeParent=1;resizeParentMax=0;resizeLast=0;collapsible=1;marginBottom=0;whiteSpace=wrap;html=1;" parent="1" vertex="1">
          <mxGeometry x="350" y="360" width="190" height="180" as="geometry" />
        </mxCell>
        <mxCell id="qHlx8H-2xH8fS5CQUAHE-34" value="- ..." style="text;strokeColor=none;fillColor=none;align=left;verticalAlign=top;spacingLeft=4;spacingRight=4;overflow=hidden;rotatable=0;points=[[0,0.5],[1,0.5]];portConstraint=eastwest;whiteSpace=wrap;html=1;" parent="qHlx8H-2xH8fS5CQUAHE-33" vertex="1">
          <mxGeometry y="26" width="190" height="26" as="geometry" />
        </mxCell>
        <mxCell id="qHlx8H-2xH8fS5CQUAHE-35" value="" style="line;strokeWidth=1;fillColor=none;align=left;verticalAlign=middle;spacingTop=-1;spacingLeft=3;spacingRight=3;rotatable=0;labelPosition=right;points=[];portConstraint=eastwest;strokeColor=inherit;" parent="qHlx8H-2xH8fS5CQUAHE-33" vertex="1">
          <mxGeometry y="52" width="190" height="8" as="geometry" />
        </mxCell>
        <mxCell id="qHlx8H-2xH8fS5CQUAHE-36" value="&lt;div&gt;+ hash(string&amp;amp;): byte[]&lt;/div&gt;&lt;div&gt;+ secureRnd(size_t): byte[]&lt;/div&gt;&lt;div&gt;+ setupDH(...)&lt;/div&gt;&lt;div&gt;+ updateDH(...)&lt;/div&gt;&lt;div&gt;+ finishDH(...)&lt;/div&gt;&lt;div&gt;+ encrypt(string, byte[]): byte[]&lt;/div&gt;&lt;div&gt;+ decrypt(byte[], byte[]): string&lt;/div&gt;" style="text;strokeColor=none;fillColor=none;align=left;verticalAlign=top;spacingLeft=4;spacingRight=4;overflow=hidden;rotatable=0;points=[[0,0.5],[1,0.5]];portConstraint=eastwest;whiteSpace=wrap;html=1;" parent="qHlx8H-2xH8fS5CQUAHE-33" vertex="1">
          <mxGeometry y="60" width="190" height="120" as="geometry" />
        </mxCell>
        <mxCell id="qHlx8H-2xH8fS5CQUAHE-38" value="" style="endArrow=block;dashed=1;endFill=0;endSize=12;html=1;rounded=0;entryX=0.5;entryY=1;entryDx=0;entryDy=0;exitX=0.473;exitY=-0.001;exitDx=0;exitDy=0;exitPerimeter=0;" parent="1" source="qHlx8H-2xH8fS5CQUAHE-23" target="qHlx8H-2xH8fS5CQUAHE-5" edge="1">
          <mxGeometry width="160" relative="1" as="geometry">
            <mxPoint x="220" y="310" as="sourcePoint" />
            <mxPoint x="380" y="310" as="targetPoint" />
          </mxGeometry>
        </mxCell>
        <mxCell id="qHlx8H-2xH8fS5CQUAHE-39" value="" style="endArrow=block;dashed=1;endFill=0;endSize=12;html=1;rounded=0;entryX=0.5;entryY=1;entryDx=0;entryDy=0;exitX=0.476;exitY=-0.016;exitDx=0;exitDy=0;exitPerimeter=0;" parent="1" source="qHlx8H-2xH8fS5CQUAHE-33" target="qHlx8H-2xH8fS5CQUAHE-5" edge="1">
          <mxGeometry width="160" relative="1" as="geometry">
            <mxPoint x="400" y="418" as="sourcePoint" />
            <mxPoint x="502" y="320" as="targetPoint" />
          </mxGeometry>
        </mxCell>
        <mxCell id="qHlx8H-2xH8fS5CQUAHE-40" value="&lt;p style=&quot;margin:0px;margin-top:6px;text-align:center;&quot;&gt;&lt;b&gt;LibTomCrypt&lt;/b&gt;&lt;/p&gt;&lt;hr size=&quot;1&quot; style=&quot;border-style:solid;&quot;&gt;&lt;p style=&quot;margin:0px;margin-left:8px;&quot;&gt;&lt;br&gt;&lt;/p&gt;" style="align=left;overflow=fill;html=1;dropTarget=0;whiteSpace=wrap;" parent="1" vertex="1">
          <mxGeometry x="140" y="590" width="190" height="90" as="geometry" />
        </mxCell>
        <mxCell id="qHlx8H-2xH8fS5CQUAHE-41" value="" style="shape=component;jettyWidth=8;jettyHeight=4;" parent="qHlx8H-2xH8fS5CQUAHE-40" vertex="1">
          <mxGeometry x="1" width="20" height="20" relative="1" as="geometry">
            <mxPoint x="-24" y="4" as="offset" />
          </mxGeometry>
        </mxCell>
        <mxCell id="qHlx8H-2xH8fS5CQUAHE-42" value="&amp;lt;&amp;lt;Use&amp;gt;&amp;gt;" style="endArrow=open;endSize=12;dashed=1;html=1;rounded=0;" parent="1" edge="1">
          <mxGeometry width="160" relative="1" as="geometry">
            <mxPoint x="230" y="540" as="sourcePoint" />
            <mxPoint x="230" y="590" as="targetPoint" />
          </mxGeometry>
        </mxCell>
        <mxCell id="qHlx8H-2xH8fS5CQUAHE-43" value="&lt;p style=&quot;margin:0px;margin-top:6px;text-align:center;&quot;&gt;&lt;b&gt;LibTomCrypt&lt;/b&gt;&lt;/p&gt;&lt;hr size=&quot;1&quot; style=&quot;border-style:solid;&quot;&gt;&lt;p style=&quot;margin:0px;margin-left:8px;&quot;&gt;&lt;br&gt;&lt;/p&gt;" style="align=left;overflow=fill;html=1;dropTarget=0;whiteSpace=wrap;" parent="1" vertex="1">
          <mxGeometry x="350" y="590" width="190" height="90" as="geometry" />
        </mxCell>
        <mxCell id="qHlx8H-2xH8fS5CQUAHE-44" value="" style="shape=component;jettyWidth=8;jettyHeight=4;" parent="qHlx8H-2xH8fS5CQUAHE-43" vertex="1">
          <mxGeometry x="1" width="20" height="20" relative="1" as="geometry">
            <mxPoint x="-24" y="4" as="offset" />
          </mxGeometry>
        </mxCell>
        <mxCell id="qHlx8H-2xH8fS5CQUAHE-45" value="&amp;lt;&amp;lt;Use&amp;gt;&amp;gt;" style="endArrow=open;endSize=12;dashed=1;html=1;rounded=0;exitX=0.496;exitY=1.011;exitDx=0;exitDy=0;exitPerimeter=0;" parent="1" source="qHlx8H-2xH8fS5CQUAHE-36" target="qHlx8H-2xH8fS5CQUAHE-43" edge="1">
          <mxGeometry width="160" relative="1" as="geometry">
            <mxPoint x="310" y="560" as="sourcePoint" />
            <mxPoint x="310" y="610" as="targetPoint" />
          </mxGeometry>
        </mxCell>
        <mxCell id="qHlx8H-2xH8fS5CQUAHE-46" value="SendReceive" style="swimlane;fontStyle=1;align=center;verticalAlign=top;childLayout=stackLayout;horizontal=1;startSize=26;horizontalStack=0;resizeParent=1;resizeParentMax=0;resizeLast=0;collapsible=1;marginBottom=0;whiteSpace=wrap;html=1;" parent="1" vertex="1">
          <mxGeometry x="570" y="360" width="160" height="170" as="geometry" />
        </mxCell>
        <mxCell id="qHlx8H-2xH8fS5CQUAHE-47" value="- ..." style="text;strokeColor=none;fillColor=none;align=left;verticalAlign=top;spacingLeft=4;spacingRight=4;overflow=hidden;rotatable=0;points=[[0,0.5],[1,0.5]];portConstraint=eastwest;whiteSpace=wrap;html=1;" parent="qHlx8H-2xH8fS5CQUAHE-46" vertex="1">
          <mxGeometry y="26" width="160" height="26" as="geometry" />
        </mxCell>
        <mxCell id="qHlx8H-2xH8fS5CQUAHE-48" value="" style="line;strokeWidth=1;fillColor=none;align=left;verticalAlign=middle;spacingTop=-1;spacingLeft=3;spacingRight=3;rotatable=0;labelPosition=right;points=[];portConstraint=eastwest;strokeColor=inherit;" parent="qHlx8H-2xH8fS5CQUAHE-46" vertex="1">
          <mxGeometry y="52" width="160" height="8" as="geometry" />
        </mxCell>
        <mxCell id="qHlx8H-2xH8fS5CQUAHE-49" value="&lt;div&gt;+ createPacket(...)&lt;/div&gt;&lt;div&gt;+ parsePacket(...)&lt;/div&gt;&lt;div&gt;+ send(byte[])&lt;/div&gt;&lt;div&gt;+ receive(): byte[]&lt;/div&gt;" style="text;strokeColor=none;fillColor=none;align=left;verticalAlign=top;spacingLeft=4;spacingRight=4;overflow=hidden;rotatable=0;points=[[0,0.5],[1,0.5]];portConstraint=eastwest;whiteSpace=wrap;html=1;" parent="qHlx8H-2xH8fS5CQUAHE-46" vertex="1">
          <mxGeometry y="60" width="160" height="110" as="geometry" />
        </mxCell>
        <mxCell id="qHlx8H-2xH8fS5CQUAHE-50" value="&amp;lt;&amp;lt;Use&amp;gt;&amp;gt;" style="endArrow=open;endSize=12;dashed=1;html=1;rounded=0;exitX=0.5;exitY=1;exitDx=0;exitDy=0;entryX=0.5;entryY=0;entryDx=0;entryDy=0;" parent="1" source="qHlx8H-2xH8fS5CQUAHE-18" target="qHlx8H-2xH8fS5CQUAHE-46" edge="1">
          <mxGeometry width="160" relative="1" as="geometry">
            <mxPoint x="570" y="570" as="sourcePoint" />
            <mxPoint x="571" y="619" as="targetPoint" />
          </mxGeometry>
        </mxCell>
        <mxCell id="qHlx8H-2xH8fS5CQUAHE-55" value="UdpSocket" style="swimlane;fontStyle=1;align=center;verticalAlign=top;childLayout=stackLayout;horizontal=1;startSize=26;horizontalStack=0;resizeParent=1;resizeParentMax=0;resizeLast=0;collapsible=1;marginBottom=0;whiteSpace=wrap;html=1;" parent="1" vertex="1">
          <mxGeometry x="570" y="590" width="160" height="120" as="geometry" />
        </mxCell>
        <mxCell id="qHlx8H-2xH8fS5CQUAHE-56" value="&lt;div&gt;- IP local/remote&lt;/div&gt;&lt;div&gt;- Port# local/remote&lt;/div&gt;" style="text;strokeColor=none;fillColor=none;align=left;verticalAlign=top;spacingLeft=4;spacingRight=4;overflow=hidden;rotatable=0;points=[[0,0.5],[1,0.5]];portConstraint=eastwest;whiteSpace=wrap;html=1;" parent="qHlx8H-2xH8fS5CQUAHE-55" vertex="1">
          <mxGeometry y="26" width="160" height="44" as="geometry" />
        </mxCell>
        <mxCell id="qHlx8H-2xH8fS5CQUAHE-57" value="" style="line;strokeWidth=1;fillColor=none;align=left;verticalAlign=middle;spacingTop=-1;spacingLeft=3;spacingRight=3;rotatable=0;labelPosition=right;points=[];portConstraint=eastwest;strokeColor=inherit;" parent="qHlx8H-2xH8fS5CQUAHE-55" vertex="1">
          <mxGeometry y="70" width="160" height="8" as="geometry" />
        </mxCell>
        <mxCell id="qHlx8H-2xH8fS5CQUAHE-58" value="&lt;div&gt;+ send()&lt;/div&gt;&lt;div&gt;+ receive()&lt;/div&gt;&lt;div&gt;&lt;br&gt;&lt;/div&gt;" style="text;strokeColor=none;fillColor=none;align=left;verticalAlign=top;spacingLeft=4;spacingRight=4;overflow=hidden;rotatable=0;points=[[0,0.5],[1,0.5]];portConstraint=eastwest;whiteSpace=wrap;html=1;" parent="qHlx8H-2xH8fS5CQUAHE-55" vertex="1">
          <mxGeometry y="78" width="160" height="42" as="geometry" />
        </mxCell>
        <mxCell id="qHlx8H-2xH8fS5CQUAHE-59" value="&amp;lt;&amp;lt;Use&amp;gt;&amp;gt;" style="endArrow=open;endSize=12;dashed=1;html=1;rounded=0;exitX=0.503;exitY=1.003;exitDx=0;exitDy=0;exitPerimeter=0;" parent="1" source="qHlx8H-2xH8fS5CQUAHE-49" target="qHlx8H-2xH8fS5CQUAHE-55" edge="1">
          <mxGeometry width="160" relative="1" as="geometry">
            <mxPoint x="530" y="560" as="sourcePoint" />
            <mxPoint x="531" y="609" as="targetPoint" />
          </mxGeometry>
        </mxCell>
        <mxCell id="qHlx8H-2xH8fS5CQUAHE-62" value="&lt;p style=&quot;margin:0px;margin-top:6px;text-align:center;&quot;&gt;&lt;b&gt;Posix Sockets&lt;/b&gt;&lt;/p&gt;&lt;hr size=&quot;1&quot; style=&quot;border-style:solid;&quot;&gt;&lt;p style=&quot;margin:0px;margin-left:8px;&quot;&gt;&lt;br&gt;&lt;/p&gt;" style="align=left;overflow=fill;html=1;dropTarget=0;whiteSpace=wrap;" parent="1" vertex="1">
          <mxGeometry x="570" y="760" width="160" height="90" as="geometry" />
        </mxCell>
        <mxCell id="qHlx8H-2xH8fS5CQUAHE-63" value="" style="shape=component;jettyWidth=8;jettyHeight=4;" parent="qHlx8H-2xH8fS5CQUAHE-62" vertex="1">
          <mxGeometry x="1" width="20" height="20" relative="1" as="geometry">
            <mxPoint x="-24" y="4" as="offset" />
          </mxGeometry>
        </mxCell>
        <mxCell id="qHlx8H-2xH8fS5CQUAHE-64" value="&amp;lt;&amp;lt;Use&amp;gt;&amp;gt;" style="endArrow=open;endSize=12;dashed=1;html=1;rounded=0;exitX=0.508;exitY=1.067;exitDx=0;exitDy=0;exitPerimeter=0;entryX=0.5;entryY=0;entryDx=0;entryDy=0;" parent="1" source="qHlx8H-2xH8fS5CQUAHE-58" target="qHlx8H-2xH8fS5CQUAHE-62" edge="1">
          <mxGeometry width="160" relative="1" as="geometry">
            <mxPoint x="500" y="570" as="sourcePoint" />
            <mxPoint x="501" y="619" as="targetPoint" />
          </mxGeometry>
        </mxCell>
      </root>
    </mxGraphModel>
  </diagram>
</mxfile>
